HIERARCHY
ROOT Hips
{
  OFFSET 5.72205e-005 65.662 3.42586
  CHANNELS 6 Xposition Yposition Zposition Zrotation Xrotation Yrotation
  JOINT Chest
  {
    OFFSET 0 8.7983 -4.7612
    CHANNELS 3 Zrotation Xrotation Yrotation
    JOINT Chest2
    {
      OFFSET 0 8.0291 0.4195
      CHANNELS 3 Zrotation Xrotation Yrotation
      JOINT Chest3
      {
        OFFSET 0 9.9351 -2.2114
        CHANNELS 3 Zrotation Xrotation Yrotation
        JOINT Neck
        {
          OFFSET 0 22.3885 -0.4656
          CHANNELS 3 Zrotation Xrotation Yrotation
          JOINT Head
          {
            OFFSET -0.0001 12.643 3.4389
            CHANNELS 3 Zrotation Xrotation Yrotation
            End Site
            {
              OFFSET 0.0001 17.6655 0.5274
            }
          }
        }
        JOINT LeftCollar
        {
          OFFSET 2.2603 21.606 7.4023
          CHANNELS 3 Zrotation Xrotation Yrotation
          JOINT LeftShoulder
          {
            OFFSET 13.5163 -1.1332 -5.0146
            CHANNELS 3 Zrotation Xrotation Yrotation
            JOINT LeftElbow
            {
              OFFSET -0.0995 -28.05 -0.2431
              CHANNELS 3 Zrotation Xrotation Yrotation
              JOINT LeftWrist
              {
                OFFSET 0.0679 -23.3996 -0.1402
                CHANNELS 3 Zrotation Xrotation Yrotation
                JOINT LeftFinger1
                {
                  OFFSET 0.7932 -9.069 2.5189
                  CHANNELS 3 Zrotation Xrotation Yrotation
                  JOINT LeftFinger11
                  {
                    OFFSET -0.8272 -3.3923 0.5977
                    CHANNELS 3 Zrotation Xrotation Yrotation
                    JOINT LeftFinger12
                    {
                      OFFSET -0.5649 -2.3158 0.4082
                      CHANNELS 3 Zrotation Xrotation Yrotation
                      End Site
                      {
                        OFFSET -0.4919 -1.6479 0.2673
                      }
                    }
                  }
                }
                JOINT LeftFinger2
                {
                  OFFSET 0.9159 -9.2044 0.2193
                  CHANNELS 3 Zrotation Xrotation Yrotation
                  JOINT LeftFinger21
                  {
                    OFFSET 0.0117 -4.1944 -0.0248
                    CHANNELS 3 Zrotation Xrotation Yrotation
                    JOINT LeftFinger22
                    {
                      OFFSET 0.0071 -2.3249 -0.0142
                      CHANNELS 3 Zrotation Xrotation Yrotation
                      End Site
                      {
                        OFFSET -0.1475 -2.0882 0.0028
                      }
                    }
                  }
                }
                JOINT LeftFinger3
                {
                  OFFSET 0.6113 -8.7231 -2.0637
                  CHANNELS 3 Zrotation Xrotation Yrotation
                  JOINT LeftFinger31
                  {
                    OFFSET -0.1927 -3.8059 -0.2383
                    CHANNELS 3 Zrotation Xrotation Yrotation
                    JOINT LeftFinger32
                    {
                      OFFSET -0.1091 -2.1688 -0.1362
                      CHANNELS 3 Zrotation Xrotation Yrotation
                      End Site
                      {
                        OFFSET -0.2358 -1.9176 -0.0906
                      }
                    }
                  }
                }
                JOINT LeftFinger4
                {
                  OFFSET -0.6151 -8.0947 -3.5641
                  CHANNELS 3 Zrotation Xrotation Yrotation
                  JOINT LeftFinger41
                  {
                    OFFSET -0.4882 -2.341 -0.6462
                    CHANNELS 3 Zrotation Xrotation Yrotation
                    JOINT LeftFinger42
                    {
                      OFFSET -0.3575 -1.7167 -0.4742
                      CHANNELS 3 Zrotation Xrotation Yrotation
                      End Site
                      {
                        OFFSET -0.4187 -1.5237 -0.3496
                      }
                    }
                  }
                }
                JOINT LeftFinger0
                {
                  OFFSET -1.42 -1.8761 1.4223
                  CHANNELS 3 Zrotation Xrotation Yrotation
                  JOINT LeftFinger01
                  {
                    OFFSET -1.1471 -3.4929 2.6334
                    CHANNELS 3 Zrotation Xrotation Yrotation
                    JOINT LeftFinger02
                    {
                      OFFSET -0.823 -2.3 1.6571
                      CHANNELS 3 Zrotation Xrotation Yrotation
                      End Site
                      {
                        OFFSET -0.5822 -1.6914 1.1582
                      }
                    }
                  }
                }
              }
            }
          }
        }
        JOINT RightCollar
        {
          OFFSET -2.2603 21.606 7.4023
          CHANNELS 3 Zrotation Xrotation Yrotation
          JOINT RightShoulder
          {
            OFFSET -13.5187 -1.1334 -5.0155
            CHANNELS 3 Zrotation Xrotation Yrotation
            JOINT RightElbow
            {
              OFFSET 0.0994 -28.0499 -0.2431
              CHANNELS 3 Zrotation Xrotation Yrotation
              JOINT RightWrist
              {
                OFFSET -0.0679 -23.3996 -0.1402
                CHANNELS 3 Zrotation Xrotation Yrotation
                JOINT RightFinger1
                {
                  OFFSET -0.7932 -9.0691 2.5189
                  CHANNELS 3 Zrotation Xrotation Yrotation
                  JOINT RightFinger11
                  {
                    OFFSET 0.8272 -3.3923 0.5977
                    CHANNELS 3 Zrotation Xrotation Yrotation
                    JOINT RightFinger12
                    {
                      OFFSET 0.565 -2.3158 0.4082
                      CHANNELS 3 Zrotation Xrotation Yrotation
                      End Site
                      {
                        OFFSET 0.4919 -1.6479 0.2673
                      }
                    }
                  }
                }
                JOINT RightFinger2
                {
                  OFFSET -0.916 -9.2044 0.2193
                  CHANNELS 3 Zrotation Xrotation Yrotation
                  JOINT RightFinger21
                  {
                    OFFSET -0.0117 -4.1944 -0.0248
                    CHANNELS 3 Zrotation Xrotation Yrotation
                    JOINT RightFinger22
                    {
                      OFFSET -0.0071 -2.3249 -0.0142
                      CHANNELS 3 Zrotation Xrotation Yrotation
                      End Site
                      {
                        OFFSET 0.1475 -2.0882 0.0028
                      }
                    }
                  }
                }
                JOINT RightFinger3
                {
                  OFFSET -0.6113 -8.7231 -2.0637
                  CHANNELS 3 Zrotation Xrotation Yrotation
                  JOINT RightFinger31
                  {
                    OFFSET 0.1927 -3.8059 -0.2383
                    CHANNELS 3 Zrotation Xrotation Yrotation
                    JOINT RightFinger32
                    {
                      OFFSET 0.1091 -2.1688 -0.1362
                      CHANNELS 3 Zrotation Xrotation Yrotation
                      End Site
                      {
                        OFFSET 0.2358 -1.9176 -0.0906
                      }
                    }
                  }
                }
                JOINT RightFinger4
                {
                  OFFSET 0.6151 -8.0947 -3.564
                  CHANNELS 3 Zrotation Xrotation Yrotation
                  JOINT RightFinger41
                  {
                    OFFSET 0.4882 -2.341 -0.6462
                    CHANNELS 3 Zrotation Xrotation Yrotation
                    JOINT RightFinger42
                    {
                      OFFSET 0.3574 -1.7166 -0.4742
                      CHANNELS 3 Zrotation Xrotation Yrotation
                      End Site
                      {
                        OFFSET 0.4187 -1.5237 -0.3496
                      }
                    }
                  }
                }
                JOINT RightFinger0
                {
                  OFFSET 1.4199 -1.8761 1.4221
                  CHANNELS 3 Zrotation Xrotation Yrotation
                  JOINT RightFinger01
                  {
                    OFFSET 1.1472 -3.4929 2.6336
                    CHANNELS 3 Zrotation Xrotation Yrotation
                    JOINT RightFinger02
                    {
                      OFFSET 0.8229 -2.3 1.6571
                      CHANNELS 3 Zrotation Xrotation Yrotation
                      End Site
                      {
                        OFFSET 0.5822 -1.6914 1.1582
                      }
                    }
                  }
                }
              }
            }
          }
        }
      }
    }
  }
  JOINT RightHip
  {
    OFFSET -9.412 3.9771 -0.7758
    CHANNELS 3 Zrotation Xrotation Yrotation
    JOINT RightKnee
    {
      OFFSET -0.7531 -40.938 0
      CHANNELS 3 Zrotation Xrotation Yrotation
      JOINT RightAnkle
      {
        OFFSET 0 -40.1986 0
        CHANNELS 3 Zrotation Xrotation Yrotation
        JOINT RightToe
        {
          OFFSET 0 -4.4182 9.239
          CHANNELS 3 Zrotation Xrotation Yrotation
          End Site
          {
            OFFSET 0 0 6.1981
          }
        }
      }
    }
  }
  JOINT LeftHip
  {
    OFFSET 9.4119 3.9773 -0.7758
    CHANNELS 3 Zrotation Xrotation Yrotation
    JOINT LeftKnee
    {
      OFFSET 0.7532 -40.9383 0
      CHANNELS 3 Zrotation Xrotation Yrotation
      JOINT LeftAnkle
      {
        OFFSET 0 -40.1986 0
        CHANNELS 3 Zrotation Xrotation Yrotation
        JOINT LeftToe
        {
          OFFSET 0 -4.4182 9.239
          CHANNELS 3 Zrotation Xrotation Yrotation
          End Site
          {
            OFFSET 0 0 6.1981
          }
        }
      }
    }
  }
}
MOTION
Frames:	4
Frame Time:	0.0333333
5.72205e-005 65.662 3.42586 0 0 -0 0 0 -0 0 0 -0 0 0 -0 0 0 -0 0 0 -0 0 0 -12.5014 88.1196 14.2451 10.6914 -0.00160068 -0.00239207 0.000740045 -8.4365e-005 7.00714e-005 -9.52055e-007 9.93923e-017 -1.98785e-016 -1.59028e-015 9.93923e-017 -5.96354e-016 -1.59028e-015 -9.93923e-017 -5.96354e-016 -1.59028e-015 9.93923e-017 -1.98785e-016 -1.59028e-015 -0.0128176 0.00232552 8.52707e-005 9.93923e-017 5.96354e-016 -0 9.93923e-017 -1.98785e-016 -1.59028e-015 -0.0160551 0.00299681 0.000857156 -2.48481e-016 0 3.18055e-015 9.93923e-017 -1.98785e-016 -1.59028e-015 -0.0125865 0.0031206 0.00282719 0 1.98785e-016 -0 9.93923e-017 -1.98785e-016 -1.59028e-015 9.93923e-017 -5.96354e-016 -1.59028e-015 -9.93923e-017 -5.96354e-016 -1.59028e-015 -0.865644 0.16582 7.03859 -88.0329 10.2057 -10.5567 0.0015593 -0.00248883 -0.000788628 7.87605e-005 4.10553e-005 1.24965e-005 -3.97569e-016 -7.95139e-016 3.18055e-015 -1.98785e-016 -3.97569e-016 3.18055e-015 -1.98785e-016 0 3.18055e-015 -3.97569e-016 -7.95139e-016 3.18055e-015 0.0129473 0.00231697 -8.70038e-005 9.93923e-017 -7.95139e-016 1.59028e-015 -3.97569e-016 -7.95139e-016 3.18055e-015 0.0163314 0.00303369 -0.000872333 3.97569e-016 7.95139e-016 -3.18055e-015 -3.97569e-016 -7.95139e-016 3.18055e-015 0.0145763 0.00367772 -0.00326275 9.93923e-017 -3.97569e-016 -0 -3.97569e-016 -7.95139e-016 3.18055e-015 -1.98785e-016 -3.97569e-016 3.18055e-015 -1.98785e-016 0 3.18055e-015 3.42482 1.32465 -0.0626183 0.000117508 0.717283 0.000978199 -3.4257 -2.04197 -0.0604716 6.47761e-025 0 -0 -3.42483 1.34017 0.0627307 -0.000193936 0.682302 -0.0013703 3.42574 -2.02253 0.0595886 -8.45714e-024 0 -7.40531e-025 
-0.903526 35.8139 10.2848 132.698 -66.6673 -0.476453 -1.20959 -5.68199 -0.44477 -2.48221 -11.3531 -1.01825 -2.48222 -11.3531 -1.01825 0.0192556 0.0720476 -0.00450572 1.59e-015 0.0135041 1.19271e-015 -27.5372 -8.55936 -3.25314 73.1702 -15.2337 -5.1704 19.6052 -50.6095 -20.3291 -6.0119 -0.487267 38.9162 -3.97569e-016 2.12943e-006 -1.27222e-014 3.97569e-015 -4.77083e-015 -9.54166e-015 7.95139e-015 -1.39642e-008 3.18055e-015 -3.97569e-016 2.12943e-006 -1.27222e-014 -0.0127954 0.00232296 8.12339e-005 8.34896e-015 -1.19271e-015 -0 -3.97569e-016 2.12943e-006 -1.27222e-014 -0.0160627 0.00299238 0.000856062 -1.31198e-014 3.97569e-016 -1.27222e-014 -3.97569e-016 2.12943e-006 -1.27222e-014 -0.0126054 0.0031367 0.00283172 2.30896e-007 2.12919e-006 -2.68865e-006 -3.97569e-016 2.12943e-006 -1.27222e-014 3.97569e-015 -4.77083e-015 -9.54166e-015 7.95139e-015 -1.39642e-008 3.18055e-015 11.8962 2.59202 22.6433 -86.4554 -27.516 -4.4009 1.27337 -4.8652 0.16564 -10.0161 1.13134 -29.0058 1.59028e-015 -1.19271e-015 9.54166e-015 7.94503e-031 -3.57812e-015 1.27222e-014 7.95139e-016 -1.19271e-015 6.36111e-015 1.59028e-015 -1.19271e-015 9.54166e-015 0.0128962 0.00230456 -9.08872e-005 -0 -7.95139e-016 -0 1.59028e-015 -1.19271e-015 9.54166e-015 0.0163635 0.0030441 -0.000886156 3.97569e-016 -4.77083e-015 -3.18055e-015 1.59028e-015 -1.19271e-015 9.54166e-015 0.0145545 0.00367736 -0.0032489 -2.78299e-015 -3.57812e-015 -1.27222e-014 1.59028e-015 -1.19271e-015 9.54166e-015 7.94503e-031 -3.57812e-015 1.27222e-014 7.95139e-016 -1.19271e-015 6.36111e-015 -89.3304 -78.7037 -101.608 148.719 64.3868 -115.125 -13.2417 25.3634 -2.54021 2.93299e-006 1.50191e-006 6.08971e-006 82.4621 -79.1548 94.7978 -148.135 64.7321 114.493 15.3381 19.2695 3.72466 -1.11641e-005 -1.18852e-006 -2.56191e-006 
1.51782 12.9177 7.71885 15.3856 -83.3257 -177.645 -1.82604 -8.2357 -0.571834 -3.79574 -16.4481 -1.43434 -3.79576 -16.4481 -1.43434 -0.0674001 0.203213 0.0157362 1.46158e-006 0.0745158 3.20269e-006 -39.0138 -12.2316 1.07173 67.7398 -28.7004 -11.6532 20.6164 -72.8064 -38.1243 -8.20209 -0.805508 56.35 -1.59028e-015 3.18055e-015 3.97569e-015 -9.85163e-007 6.17673e-008 -1.53734e-006 4.77083e-015 9.54166e-015 7.95139e-016 -1.59028e-015 3.18055e-015 3.97569e-015 -0.0127933 0.00231903 8.97241e-005 0 3.18055e-015 -0 -1.59028e-015 3.18055e-015 3.97569e-015 -0.0160469 0.00298786 0.000859725 1.43125e-014 9.54166e-015 -2.46493e-014 -1.59028e-015 3.18055e-015 3.97569e-015 -0.0125797 0.00311066 0.00282438 1.59028e-015 -9.54166e-015 1.59028e-015 -1.59028e-015 3.18055e-015 3.97569e-015 -9.85163e-007 6.17673e-008 -1.53734e-006 4.77083e-015 9.54166e-015 7.95139e-016 17.1958 3.52407 29.6868 -85.6855 -44.4003 -1.9059 1.85127 -7.29898 0.313071 -14.7474 1.4484 -42.2031 9.48393e-007 1.0559e-006 3.83336e-006 -6.36111e-015 0 1.11319e-014 -3.18055e-015 0 7.95139e-015 9.48393e-007 1.0559e-006 3.83336e-006 0.0129333 0.00231391 -7.77781e-005 6.71731e-006 1.10427e-006 -3.89701e-006 9.48393e-007 1.0559e-006 3.83336e-006 0.0163388 0.00302305 -0.000870681 6.36111e-015 0 -7.95139e-015 9.48393e-007 1.0559e-006 3.83336e-006 0.0145523 0.00366672 -0.00325391 6.71798e-007 2.62409e-006 4.8813e-007 9.48393e-007 1.0559e-006 3.83336e-006 -6.36111e-015 0 1.11319e-014 -3.18055e-015 0 7.95139e-015 -144.781 -37.9827 -146.431 -158.869 31.715 -136.887 -18.4749 43.302 -0.464704 1.59028e-015 -7.03039e-007 -1.59028e-015 144.201 -38.7485 147.248 157.91 32.8256 137.876 19.386 36.1889 2.68449 -3.18055e-015 3.18055e-015 4.77083e-015 
0.0129274 17.6367 8.57501 89.3142 -89.7452 -90.4186 -1.6855 -7.66853 -0.547655 -3.49319 -15.3169 -1.34334 -3.4932 -15.317 -1.34335 -0.260194 0.393501 0.0608873 -2.36274e-006 0.183008 4.39146e-007 -36.5132 -11.4307 0.0973541 68.7719 -25.4924 -10.3154 21.8032 -68.2574 -32.3573 -7.35974 -0.644461 52.234 -3.71106e-006 -8.35262e-007 2.98294e-006 -1.10797e-006 -3.52857e-007 -3.23709e-006 -7.95139e-015 3.18055e-015 6.36111e-015 -3.71106e-006 -8.35262e-007 2.98294e-006 -0.0128263 0.00232041 8.17776e-005 4.77083e-015 3.18055e-015 4.77083e-015 -3.71106e-006 -8.35262e-007 2.98294e-006 -0.0160609 0.00298424 0.000863365 2.4745e-006 1.13672e-006 -1.98852e-006 -3.71106e-006 -8.35262e-007 2.98294e-006 -0.0125869 0.00312043 0.00283649 -1.59028e-015 6.36111e-015 -0 -3.71106e-006 -8.35262e-007 2.98294e-006 -1.10797e-006 -3.52857e-007 -3.23709e-006 -7.95139e-015 3.18055e-015 6.36111e-015 16.0403 3.32995 28.1201 -85.4397 -40.4114 -2.51794 1.7182 -7.30918 0.384189 -13.9271 1.3462 -39.2869 -3.53113e-031 3.18055e-015 6.36111e-015 -4.26808e-006 -7.94455e-006 -1.44798e-006 1.59028e-015 0 -1.59028e-015 -3.53113e-031 3.18055e-015 6.36111e-015 0.0129646 0.00231421 -8.70446e-005 -1.10633e-006 -3.46852e-006 -1.17705e-006 -3.53113e-031 3.18055e-015 6.36111e-015 0.0163592 0.00302655 -0.000879068 4.77083e-015 0 -3.18055e-015 -3.53113e-031 3.18055e-015 6.36111e-015 0.0145908 0.00366956 -0.00326378 -2.21257e-006 1.03941e-006 -2.35421e-006 -3.53113e-031 3.18055e-015 6.36111e-015 -4.26808e-006 -7.94455e-006 -1.44798e-006 1.59028e-015 0 -1.59028e-015 -140.437 -49.1261 -146.85 -167.257 38.3525 -137.167 -17.5734 39.0008 -1.89959 -1.87121e-007 6.49753e-007 -3.09891e-006 139.899 -49.8408 147.094 166.908 39.1286 137.579 19.3398 32.1583 3.67717 6.36771e-006 -5.40721e-006 -6.86724e-007 
